# xmcd
#
# Track frame offsets:
#	150
#	12422
#	25736
#	40855
#	59714
#	74964
#	91323
#	104600
#	121290
#	133478
#	150566
#	166956
#	186322
#	199624
#	219531
#	236184
#
# Disc length: 3378 seconds
#
# Revision: 0
# Processed by: cddbd v1.5.1PL2 Copyright (c) Steve Scherf et al.
# Submitted via: dBpowerAMP V4.0
#
DISCID=f40d3010
DTITLE=Vários - Forró
DYEAR=1900
DGENRE=Country
TTITLE0=aa
TTITLE1=a
TTITLE2=b
TTITLE3=c
TTITLE4=e
TTITLE5=d
TTITLE6=f
TTITLE7=g
TTITLE8=h
TTITLE9=i
TTITLE10=j
TTITLE11=k
TTITLE12=l
TTITLE13=m
TTITLE14=n
TTITLE15=o
EXTD=
EXTT0=
EXTT1=
EXTT2=
EXTT3=
EXTT4=
EXTT5=
EXTT6=
EXTT7=
EXTT8=
EXTT9=
EXTT10=
EXTT11=
EXTT12=
EXTT13=
EXTT14=
EXTT15=
PLAYORDER=
